<?xml version="1.0" encoding="UTF-8" standalone="no"?>
<!-- Created with Inkscape (http://www.inkscape.org/) -->

<svg
   version="1.1"
   id="svg1"
   width="365.30457"
   height="428.25592"
   viewBox="0 0 365.30456 428.25591"
   sodipodi:docname="black_duck_new.svg"
   inkscape:export-filename="yellow_duck_new.png"
   inkscape:export-xdpi="315.3533"
   inkscape:export-ydpi="315.3533"
   inkscape:version="1.3.2 (091e20e, 2023-11-25, custom)"
   xmlns:inkscape="http://www.inkscape.org/namespaces/inkscape"
   xmlns:sodipodi="http://sodipodi.sourceforge.net/DTD/sodipodi-0.dtd"
   xmlns="http://www.w3.org/2000/svg"
   xmlns:svg="http://www.w3.org/2000/svg">
  <sodipodi:namedview
     id="namedview1"
     pagecolor="#ffffff"
     bordercolor="#000000"
     borderopacity="0.25"
     inkscape:showpageshadow="2"
     inkscape:pageopacity="0.0"
     inkscape:pagecheckerboard="0"
     inkscape:deskcolor="#d1d1d1"
     inkscape:zoom="1.3555788"
     inkscape:cx="100.69499"
     inkscape:cy="238.64344"
     inkscape:window-width="1920"
     inkscape:window-height="1017"
     inkscape:window-x="-8"
     inkscape:window-y="-8"
     inkscape:window-maximized="1"
     inkscape:current-layer="layer-MC0" />
  <defs
     id="defs1">
    <clipPath
       clipPathUnits="userSpaceOnUse"
       id="clipPath22-6-9">
      <path
         d="M 0,2000 H 2000 V 0 H 0 Z"
         transform="translate(-345.92591,-937.25962)"
         id="path22-0-1" />
    </clipPath>
  </defs>
  <g
     id="layer-MC0"
     transform="translate(-635.77559,-250.79296)">
    <path
       id="path21-7-5"
       clip-path="url(#clipPath22-6-9)"
       style="fill:#eec900;fill-opacity:1;fill-rule:nonzero;stroke:none;stroke-opacity:1"
       transform="matrix(1.7630431,0,0,-1.7630431,932.90907,388.60676)"
       d="m -0.3556635,-23.912307 c 2.2308436,2.448969 7.2313746,0.638409 11.7474715,1.223637 8.291218,1.074434 13.708115,5.644637 13.708115,5.644637 5.476,6.279 -8.582934,10.410033 -8.582934,10.410033 18.609,13.514 16.396,28.284 16.396,28.284 -1.003,4.924 -4.272,5.601 -6.775,5.333 -1.664,-0.179 -3.152,-1.042 -4.303,-2.256 -6.32,-6.669 -20.1284103,-5.504265 -20.1284103,-5.504265 M -76.232299,77.650367 c 0,0 8.990404,-5.364574 16.17939,-13.562556 0,0 -21.119934,4.693585 -39.465897,-8.532389 0,0 6.551635,0.506373 11.925624,-2.143621 0,0 -22.591528,-20.333329 -17.257538,-49.7962689 1.48,-8.170984 5.168074,-15.7551941 10.173064,-22.3811801 4.102991,-5.43199 10.457977,-12.652864 19.542958,-19.95285 0,0 -15.977094,-24.380085 -35.265252,-21.630375 0,0 -18.5746,0.46906 -31.40057,8.00204 -14.95197,8.78198 -22.99139,0.34825 -25.90539,-16.74573 -0.106,-0.624 -0.20578,-1.26506 -0.29578,-1.92206 -0.931,-6.79698 -0.61373,-13.70775 0.73226,-20.43475 3.322,-16.592957 14.24624,-50.013407 49.34317,-65.138387 6.51799,-2.809 13.4138,-4.59814 20.424784,-5.70414 27.891944,-4.40298 115.295397,-12.1159 122.728377,66.308937 0,0 6.37075,35.40015 -13.820613,58.496098 -1.5741761,1.800625 -6.3085741,5.343727 -9.3356841,7.722403 0,0 -2.78909003,1.26184 -2.9180105,3.392163 -0.3865594,6.387632 21.5560996,29.6726955 -1.6310235,68.883893 0,0 -20.2079749,29.804783 -73.7538689,35.138773 z M -23.11726,36.238458 c 2.52692,-0.002 5.438039,-1.69707 7.441191,-4.60297 2.786994,-4.041992 2.761172,-8.896078 -0.05982,-10.841074 -2.819994,-1.943996 -7.366127,-0.244296 -10.153121,3.798696 -2.787996,4.041992 -2.760173,8.896078 0.05982,10.841074 0.793406,0.54675 1.723136,0.805072 2.71193,0.804274 z m -0.03434,-97.988421 c 0,0 4.613902,-12.58315 0.964906,-25.83313 -3.416996,-12.40699 -14.682393,-21.020887 -27.54138,-21.545887 -11.975988,-0.489 -29.447644,2.53365 -42.61763,20.474627 -0.35,0.477 -0.304081,1.14199 0.101919,1.57199 l 0.378872,0.39992 c 0.505,0.533 1.359003,0.50972 1.829002,-0.0543 0.043,-0.051 0.08694,-0.10442 0.132938,-0.15842 19.113981,-22.672977 55.993436,-15.138587 64.604428,13.23839 1.080999,3.56199 1.842945,7.52079 2.146945,11.90679 z"
       sodipodi:nodetypes="cscccccccccccccccccccccscscccccccccccccscccsc" />
  </g>
</svg>
