<?xml version="1.0" encoding="UTF-8" standalone="no"?>
<!-- Created with Inkscape (http://www.inkscape.org/) -->

<svg
   version="1.1"
   id="svg1"
   width="276.26764"
   height="323.87622"
   viewBox="0 0 276.26763 323.87621"
   xmlns="http://www.w3.org/2000/svg"
   xmlns:svg="http://www.w3.org/2000/svg">
  <defs
     id="defs1">
    <clipPath
       clipPathUnits="userSpaceOnUse"
       id="clipPath16">
      <path
         d="M 0,2000 H 2000 V 0 H 0 Z"
         transform="translate(-258.33271,-990.67162)"
         id="path16" />
    </clipPath>
    <clipPath
       clipPathUnits="userSpaceOnUse"
       id="clipPath18">
      <path
         d="M 0,2000 H 2000 V 0 H 0 Z"
         transform="translate(-322.77481,-875.5098)"
         id="path18" />
    </clipPath>
    <clipPath
       clipPathUnits="userSpaceOnUse"
       id="clipPath20">
      <path
         d="M 0,2000 H 2000 V 0 H 0 Z"
         transform="translate(-330.25021,-968.89485)"
         id="path20" />
    </clipPath>
    <clipPath
       clipPathUnits="userSpaceOnUse"
       id="clipPath22">
      <path
         d="M 0,2000 H 2000 V 0 H 0 Z"
         transform="translate(-345.92591,-937.25962)"
         id="path22" />
    </clipPath>
  </defs>
  <g
     id="layer-MC0"
     transform="translate(-236.52247,-1312.7632)">
    <path
       id="path15"
       d="m 0,0 c 0,0 -22.592,-20.333 -17.258,-49.796 1.48,-8.171 5.169,-15.756 10.174,-22.382 4.103,-5.432 10.458,-12.652 19.543,-19.952 0,0 -24.262,-4.262 -30.532,-24.59 0,0 -12.065,3.428 -24.891,10.961 -14.952,8.782 -34.235,0.348 -37.149,-16.746 -0.106,-0.624 -0.205,-1.265 -0.295,-1.922 -0.931,-6.797 -0.614,-13.707 0.732,-20.434 3.322,-16.593 14.246,-50.014 49.343,-65.139 6.518,-2.809 13.414,-4.598 20.425,-5.704 27.892,-4.403 114.408,-11.598 121.841,66.827 0,0 5.065,44.536 -27.292,65.277 0,0 -14.585,8.686 -10.106,21.687 0.89,2.582 2.507,4.848 4.489,6.725 6.181,5.853 22.327,20.212 5.203,44.805 0,0 -20.208,29.805 -73.754,35.139 0,0 9.878,-5.882 17.067,-14.08 0,0 -21.12,4.693 -39.466,-8.533 0,0 6.552,0.507 11.926,-2.143"
       style="fill:#f6bd0a;fill-opacity:1;fill-rule:nonzero;stroke:none"
       transform="matrix(1.3333333,0,0,-1.3333333,344.4436,1345.7712)"
       clip-path="url(#clipPath16)" />
    <path
       id="path17"
       d="m 0,0 c -0.304,-4.386 -1.067,-8.345 -2.148,-11.907 -8.611,-28.377 -45.49,-35.911 -64.604,-13.238 -0.046,0.054 -0.09,0.107 -0.133,0.158 -0.47,0.564 -1.324,0.587 -1.829,0.054 l -0.379,-0.4 c -0.406,-0.43 -0.452,-1.095 -0.102,-1.572 13.17,-17.941 30.642,-20.963 42.618,-20.474 12.859,0.525 24.124,9.139 27.541,21.546 C 4.613,-12.583 0,0 0,0"
       style="fill:#f68213;fill-opacity:1;fill-rule:nonzero;stroke:none"
       transform="matrix(1.3333333,0,0,-1.3333333,430.3664,1499.3203)"
       clip-path="url(#clipPath18)" />
    <path
       id="path19"
       d="m 0,0 c 2.787,-4.042 2.761,-8.896 -0.06,-10.841 -2.82,-1.944 -7.366,-0.244 -10.153,3.799 C -13.001,-3 -12.974,1.854 -10.154,3.799 -7.333,5.743 -2.787,4.043 0,0"
       style="fill:#f68213;fill-opacity:1;fill-rule:nonzero;stroke:none"
       transform="matrix(1.3333333,0,0,-1.3333333,440.3336,1374.8069)"
       clip-path="url(#clipPath20)" />
    <path
       id="path21"
       d="m 0,0 c -4.975,-4.885 -6.939,-11.135 -6.939,-11.135 -1.753,-11.599 10.243,-12.614 10.243,-12.614 22.559,-0.305 27.32,6.631 27.32,6.631 5.476,6.279 -8.435,10.484 -8.435,10.484 C 40.798,6.88 38.585,21.65 38.585,21.65 37.582,26.574 34.313,27.251 31.81,26.983 30.146,26.804 28.658,25.941 27.507,24.727 21.187,18.058 10.929,18.631 10.929,18.631 10.929,18.631 9.307,10.547 0,0"
       style="fill:#f68213;fill-opacity:1;fill-rule:nonzero;stroke:none"
       transform="matrix(1.3333333,0,0,-1.3333333,461.23453,1416.9872)"
       clip-path="url(#clipPath22)" />
  </g>
</svg>
