<?xml version="1.0" encoding="UTF-8" standalone="no"?>
<!-- Created with Inkscape (http://www.inkscape.org/) -->

<svg
   version="1.1"
   id="svg1"
   width="1869.0009"
   height="207.93237"
   viewBox="0 0 1869.0008 207.93237"
   xmlns="http://www.w3.org/2000/svg"
   xmlns:svg="http://www.w3.org/2000/svg">
  <defs
     id="defs1">
    <clipPath
       clipPathUnits="userSpaceOnUse"
       id="clipPath2">
      <path
         d="M 0,2000 H 2000 V 0 H 0 Z"
         transform="translate(-454.94371,-839.08965)"
         id="path2" />
    </clipPath>
    <clipPath
       clipPathUnits="userSpaceOnUse"
       id="clipPath4">
      <path
         d="M 0,2000 H 2000 V 0 H 0 Z"
         transform="translate(-656.56132,-961.17585)"
         id="path4" />
    </clipPath>
    <clipPath
       clipPathUnits="userSpaceOnUse"
       id="clipPath6">
      <path
         d="M 0,2000 H 2000 V 0 H 0 Z"
         transform="translate(-1006.5543,-961.17585)"
         id="path6" />
    </clipPath>
    <clipPath
       clipPathUnits="userSpaceOnUse"
       id="clipPath8">
      <path
         d="M 0,2000 H 2000 V 0 H 0 Z"
         transform="translate(-1064.4756,-961.17585)"
         id="path8" />
    </clipPath>
    <clipPath
       clipPathUnits="userSpaceOnUse"
       id="clipPath10">
      <path
         d="M 0,2000 H 2000 V 0 H 0 Z"
         transform="translate(-1384.1715,-961.17585)"
         id="path10" />
    </clipPath>
    <clipPath
       clipPathUnits="userSpaceOnUse"
       id="clipPath12">
      <path
         d="M 0,2000 H 2000 V 0 H 0 Z"
         transform="translate(-1443.6543,-866.4936)"
         id="path12" />
    </clipPath>
    <clipPath
       clipPathUnits="userSpaceOnUse"
       id="clipPath14">
      <path
         d="M 0,2000 H 2000 V 0 H 0 Z"
         transform="translate(-1663.0945,-866.4936)"
         id="path14" />
    </clipPath>
  </defs>
  <g
     id="layer-MC0"
     transform="translate(-561.14363,-1385.0989)">
    <path
       id="path1"
       d="M 0,0 C 0,-1.931 0.965,-2.896 2.896,-2.896 H 75.97 c 6.534,0 12.031,0.593 16.486,1.783 4.456,1.186 8.055,3.119 10.805,5.793 2.747,2.673 4.713,6.237 5.904,10.693 1.187,4.456 1.783,9.948 1.783,16.485 v 24.507 c 0,6.534 -0.596,12.031 -1.783,16.486 -1.191,4.456 -3.157,8.021 -5.904,10.694 -2.75,2.674 -6.349,4.602 -10.805,5.793 -4.455,1.187 -9.952,1.781 -16.486,1.781 H 2.896 C 0.965,91.119 0,90.079 0,88.002 Z m 76.861,122.086 c 12.031,0 22.352,-1.224 30.967,-3.676 8.612,-2.45 15.668,-6.236 21.165,-11.362 5.493,-5.123 9.541,-11.661 12.142,-19.605 2.596,-7.946 3.898,-17.341 3.898,-28.182 V 28.963 c 0,-10.843 -1.302,-20.239 -3.898,-28.183 -2.601,-7.947 -6.649,-14.481 -12.142,-19.605 -5.497,-5.123 -12.553,-8.912 -21.165,-11.362 -8.615,-2.45 -18.936,-3.676 -30.967,-3.676 H -27.402 c -4.456,0 -6.684,2.228 -6.684,6.684 v 142.583 c 0,4.456 2.228,6.682 6.684,6.682 z"
       style="fill:#eec900;fill-opacity:1;fill-rule:nonzero;stroke:none"
       transform="matrix(1.3333333,0,0,-1.3333333,606.5916,1547.8805)"
       clip-path="url(#clipPath2)" />
    <path
       id="path3"
       d="m 0,0 c 3.265,0 4.901,-1.636 4.901,-4.9 v -88.893 c 0,-5.941 0.48,-10.88 1.448,-14.814 0.964,-3.937 2.562,-7.056 4.79,-9.358 2.228,-2.303 5.236,-3.937 9.023,-4.9 3.787,-0.968 8.577,-1.449 14.369,-1.449 h 61.712 c 5.793,0 10.582,0.481 14.37,1.449 3.787,0.963 6.794,2.597 9.022,4.9 2.228,2.302 3.788,5.421 4.679,9.358 0.891,3.934 1.337,8.873 1.337,14.814 V -4.9 c 0,3.264 1.632,4.9 4.901,4.9 h 24.284 c 3.265,0 4.901,-1.636 4.901,-4.9 v -92.234 c 0,-10.693 -1.114,-19.793 -3.342,-27.291 -2.228,-7.502 -5.831,-13.59 -10.805,-18.268 -4.978,-4.678 -11.438,-8.059 -19.382,-10.137 -7.948,-2.081 -17.565,-3.119 -28.851,-3.119 H 33.195 c -11.289,0 -20.869,1.038 -28.74,3.119 -7.874,2.078 -14.296,5.459 -19.27,10.137 -4.979,4.678 -8.616,10.766 -10.917,18.268 -2.305,7.498 -3.453,16.598 -3.453,27.291 V -4.9 c 0,3.264 1.706,4.9 5.124,4.9 z"
       style="fill:#eec900;fill-opacity:1;fill-rule:nonzero;stroke:none"
       transform="matrix(1.3333333,0,0,-1.3333333,875.41507,1385.0989)"
       clip-path="url(#clipPath4)" />
    <path
       id="path5"
       d="m 0,0 c 3.265,0 4.901,-1.636 4.901,-4.9 v -21.833 c 0,-3.418 -1.636,-5.125 -4.901,-5.125 h -99.139 c -5.793,0 -10.583,-0.483 -14.371,-1.448 -3.786,-0.968 -6.794,-2.6 -9.022,-4.9 -2.228,-2.305 -3.826,-5.387 -4.79,-9.247 -0.968,-3.864 -1.448,-8.765 -1.448,-14.703 v -31.637 c 0,-5.941 0.48,-10.88 1.448,-14.814 0.964,-3.937 2.562,-7.056 4.79,-9.358 2.228,-2.303 5.236,-3.937 9.022,-4.9 3.788,-0.968 8.578,-1.449 14.371,-1.449 H 0 c 3.265,0 4.901,-1.636 4.901,-4.9 v -21.833 c 0,-3.27 -1.636,-4.902 -4.901,-4.902 h -100.476 c -11.29,0 -20.869,1.038 -28.74,3.119 -7.873,2.078 -14.296,5.459 -19.27,10.137 -4.978,4.678 -8.616,10.766 -10.917,18.268 -2.305,7.498 -3.453,16.598 -3.453,27.291 v 38.319 c 0,10.695 1.148,19.752 3.453,27.18 2.301,7.425 5.939,13.479 10.917,18.158 4.974,4.678 11.397,8.092 19.27,10.247 7.871,2.151 17.45,3.23 28.74,3.23 z"
       style="fill:#eec900;fill-opacity:1;fill-rule:nonzero;stroke:none"
       transform="matrix(1.3333333,0,0,-1.3333333,1342.0724,1385.0989)"
       clip-path="url(#clipPath6)" />
    <path
       id="path7"
       d="m 0,0 c 3.266,0 4.902,-1.636 4.902,-4.9 v -59.261 h 31.413 c 3.565,0 6.534,0.111 8.912,0.333 2.374,0.224 4.455,0.704 6.237,1.448 1.783,0.743 3.417,1.783 4.902,3.119 1.484,1.337 3.042,3.043 4.678,5.126 l 38.321,51.239 c 0.74,1.038 1.481,1.783 2.226,2.228 0.742,0.446 2.151,0.668 4.234,0.668 h 27.624 c 1.929,0 3.082,-0.633 3.454,-1.893 0.369,-1.264 0.184,-2.416 -0.557,-3.453 l -43.22,-55.919 c -2.527,-3.418 -4.868,-6.315 -7.019,-8.688 -2.154,-2.379 -4.27,-4.457 -6.347,-6.239 5.791,-3.565 11.433,-8.91 16.931,-16.04 l 45.67,-57.924 c 0.593,-0.746 0.815,-1.893 0.668,-3.454 -0.149,-1.559 -1.335,-2.339 -3.563,-2.339 h -28.517 c -1.933,0 -3.27,0.222 -4.011,0.668 -0.744,0.445 -1.485,1.188 -2.228,2.228 l -40.992,53.024 c -2.973,3.86 -6.166,6.494 -9.58,7.908 -3.418,1.41 -8.542,2.117 -15.373,2.117 H 4.902 v -61.043 c 0,-3.27 -1.636,-4.902 -4.902,-4.902 h -24.06 c -3.418,0 -5.124,1.632 -5.124,4.902 V -4.9 c 0,3.264 1.706,4.9 5.124,4.9 z"
       style="fill:#eec900;fill-opacity:1;fill-rule:nonzero;stroke:none"
       transform="matrix(1.3333333,0,0,-1.3333333,1419.3008,1385.0989)"
       clip-path="url(#clipPath8)" />
    <path
       id="path9"
       d="m 0,0 c 3.415,0 5.124,-1.636 5.124,-4.9 v -21.165 c 0,-3.268 -1.709,-4.902 -5.124,-4.902 h -96.69 c -5.791,0 -10.582,-0.483 -14.369,-1.448 -3.788,-0.968 -6.795,-2.6 -9.023,-4.9 -2.228,-2.305 -3.826,-5.424 -4.79,-9.358 -0.967,-3.937 -1.448,-8.799 -1.448,-14.592 v -4.456 H -1.115 c 3.266,0 4.902,-1.636 4.902,-4.902 v -17.599 c 0,-3.269 -1.636,-4.901 -4.902,-4.901 H -126.32 v -57.924 c 0,-3.27 -1.636,-4.902 -4.902,-4.902 h -24.059 c -3.42,0 -5.126,1.632 -5.126,4.902 v 92.232 c 0,10.695 1.149,19.752 3.454,27.18 2.302,7.425 5.938,13.479 10.917,18.158 4.975,4.678 11.396,8.092 19.27,10.247 7.871,2.151 17.451,3.23 28.739,3.23 z"
       style="fill:#eec900;fill-opacity:1;fill-rule:nonzero;stroke:none"
       transform="matrix(1.3333333,0,0,-1.3333333,1845.562,1385.0989)"
       clip-path="url(#clipPath10)" />
    <path
       id="path11"
       d="m 0,0 c 0,-5.793 0.481,-10.66 1.448,-14.594 0.964,-3.937 2.562,-7.055 4.791,-9.356 2.228,-2.305 5.234,-3.937 9.023,-4.902 3.786,-0.968 8.577,-1.448 14.368,-1.448 h 66.169 c 5.791,0 10.582,0.48 14.368,1.448 3.787,0.965 6.796,2.597 9.024,4.902 2.228,2.301 3.822,5.419 4.789,9.356 0.964,3.934 1.449,8.801 1.449,14.594 v 33.417 c 0,5.793 -0.485,10.655 -1.449,14.593 -0.967,3.933 -2.561,7.052 -4.789,9.357 -2.228,2.3 -5.237,3.932 -9.024,4.9 -3.786,0.965 -8.577,1.448 -14.368,1.448 H 29.63 c -5.791,0 -10.582,-0.483 -14.368,-1.448 -3.789,-0.968 -6.795,-2.6 -9.023,-4.9 C 4.01,55.062 2.412,51.943 1.448,48.01 0.481,44.072 0,39.21 0,33.417 Z m 97.136,94.682 c 11.285,0 20.902,-1.079 28.85,-3.23 7.944,-2.155 14.404,-5.569 19.381,-10.247 4.975,-4.678 8.578,-10.732 10.806,-18.158 2.228,-7.428 3.341,-16.485 3.341,-27.18 V -2.452 c 0,-10.693 -1.113,-19.793 -3.341,-27.291 -2.228,-7.502 -5.831,-13.59 -10.806,-18.268 -4.977,-4.678 -11.437,-8.059 -19.381,-10.136 -7.948,-2.082 -17.565,-3.12 -28.85,-3.12 H 28.293 c -11.288,0 -20.868,1.038 -28.739,3.12 -7.874,2.077 -14.295,5.458 -19.27,10.136 -4.978,4.678 -8.615,10.766 -10.917,18.268 -2.304,7.498 -3.453,16.598 -3.453,27.291 v 38.319 c 0,10.695 1.149,19.752 3.453,27.18 2.302,7.426 5.939,13.48 10.917,18.158 4.975,4.678 11.396,8.092 19.27,10.247 7.871,2.151 17.451,3.23 28.739,3.23 z"
       style="fill:#eec900;fill-opacity:1;fill-rule:nonzero;stroke:none"
       transform="matrix(1.3333333,0,0,-1.3333333,1924.8723,1511.3419)"
       clip-path="url(#clipPath12)" />
    <path
       id="path13"
       d="m 0,0 c 0,-5.793 0.481,-10.66 1.448,-14.594 0.964,-3.937 2.562,-7.055 4.791,-9.356 2.228,-2.305 5.234,-3.937 9.023,-4.902 3.786,-0.968 8.577,-1.448 14.368,-1.448 h 66.169 c 5.791,0 10.582,0.48 14.368,1.448 3.787,0.965 6.796,2.597 9.024,4.902 2.228,2.301 3.822,5.419 4.788,9.356 0.965,3.934 1.45,8.801 1.45,14.594 v 33.417 c 0,5.793 -0.485,10.655 -1.45,14.593 -0.966,3.933 -2.56,7.052 -4.788,9.357 -2.228,2.3 -5.237,3.932 -9.024,4.9 -3.786,0.965 -8.577,1.448 -14.368,1.448 H 29.63 c -5.791,0 -10.582,-0.483 -14.368,-1.448 -3.789,-0.968 -6.795,-2.6 -9.023,-4.9 C 4.01,55.062 2.412,51.943 1.448,48.01 0.481,44.072 0,39.21 0,33.417 Z m 97.135,94.682 c 11.286,0 20.903,-1.079 28.851,-3.23 7.944,-2.155 14.404,-5.569 19.381,-10.247 4.975,-4.678 8.577,-10.732 10.805,-18.158 2.229,-7.428 3.342,-16.485 3.342,-27.18 V -2.452 c 0,-10.693 -1.113,-19.793 -3.342,-27.291 -2.228,-7.502 -5.83,-13.59 -10.805,-18.268 -4.977,-4.678 -11.437,-8.059 -19.381,-10.136 -7.948,-2.082 -17.565,-3.12 -28.851,-3.12 H 28.293 c -11.288,0 -20.868,1.038 -28.739,3.12 -7.874,2.077 -14.295,5.458 -19.27,10.136 -4.979,4.678 -8.615,10.766 -10.917,18.268 -2.304,7.498 -3.453,16.598 -3.453,27.291 v 38.319 c 0,10.695 1.149,19.752 3.453,27.18 2.302,7.426 5.938,13.48 10.917,18.158 4.975,4.678 11.396,8.092 19.27,10.247 7.871,2.151 17.451,3.23 28.739,3.23 z"
       style="fill:#eec900;fill-opacity:1;fill-rule:nonzero;stroke:none"
       transform="matrix(1.3333333,0,0,-1.3333333,2217.4593,1511.3419)"
       clip-path="url(#clipPath14)" />
  </g>
</svg>
